<svg width="47" height="63" viewBox="0 0 47 63" fill="none" xmlns="http://www.w3.org/2000/svg">
<path d="M2.83294 20.5817C3.26266 20.421 3.72421 20.3365 4.20566 20.3365C5.39932 20.3365 6.4776 20.8713 7.24354 21.721C7.24354 21.721 7.24354 21.7189 7.24354 21.7167C7.24752 21.721 7.2495 21.7252 7.25348 21.7294C7.44845 21.945 7.49222 21.9936 7.50415 22.0296C7.22762 21.9112 6.92324 21.8499 6.62084 21.8351C6.20306 21.8203 5.7813 21.888 5.38341 22.0232C4.58166 22.2896 3.85551 22.7969 3.28852 23.4648C3.01 23.8051 2.77127 24.1835 2.5962 24.5977C2.42709 25.0141 2.31171 25.4601 2.29181 25.9125C2.23412 26.8214 2.54447 27.7049 3.0299 28.3834C2.73545 27.5844 2.58028 26.7537 2.70362 25.9569C2.82299 25.1642 3.18109 24.4329 3.68641 23.8368C4.18576 23.2344 4.82437 22.7546 5.52665 22.4333C6.17918 22.1437 6.90334 21.9894 7.63148 22.1458C9.26283 22.7588 10.4326 24.4075 10.4326 26.3521C10.4326 27.9184 9.67265 29.2965 8.52275 30.0934C9.62092 31.0573 11.497 32.5517 12.8876 32.9025C12.8876 32.9025 13.2855 32.9702 13.6993 33.1139C13.5421 31.778 13.7232 30.3745 14.1927 29.2331C14.6343 28.1572 15.3903 27.3942 16.2955 26.9059C16.2756 25.885 16.4328 24.8894 16.7193 24.1919C17.4394 22.4375 18.9554 21.6766 20.5808 21.3468C20.72 20.4739 20.9866 19.6664 21.3268 19.1021C21.9137 18.1298 22.8189 17.3498 23.8375 16.8975C23.7778 16.6861 23.5908 16.4726 23.0079 16.8742L21.6113 17.8677C21.6113 17.8677 19.9561 18.9583 19.405 17.5569L18.0999 15.1452C18.0999 15.1452 16.966 15.7645 16.7193 15.308C16.7193 15.308 16.7451 14.435 16.6576 13.4183C16.586 12.5643 15.6131 11.2348 15.263 10.3217C15.263 10.3217 15.0879 9.90951 14.9188 9.26483C14.7278 8.53559 14.5428 7.50199 14.6303 6.42188C14.6801 5.81947 14.8154 5.20226 15.0839 4.61253C15.0839 4.61253 15.2152 4.12003 15.6788 3.46055C16.0866 2.70173 16.7252 2.02745 17.4255 1.54341C19.5005 0.108196 22.2678 0.0616944 24.5278 1.04669C27.0942 2.16484 29.016 7.54426 28.8111 10.996C29.2786 11.2834 29.6924 11.5709 30.0008 11.7928C30.5379 12.1796 31.083 12.632 31.5983 13.135C33.0208 13.0653 34.4611 13.2217 35.8239 13.6571C37.4513 14.175 39.0528 15.2255 40.1967 16.629C41.2232 16.9207 42.2219 17.5485 42.9938 18.172C44.5854 19.4572 45.7651 21.2538 46.3063 23.3041C47.0205 26.0076 46.6882 30.7973 44.5217 33.1351C46.36 35.1452 46.8036 38.3221 46.1988 41.2074C45.7413 43.3845 44.655 45.3946 43.521 47.2441C42.9541 48.1678 42.2737 49.0598 41.826 50.0554C41.7345 50.2583 41.6629 50.4718 41.5973 50.6853C41.5455 51.2644 41.5296 51.8605 41.5654 52.4671C41.5654 52.4671 41.6351 53.1435 41.6589 53.951C41.6609 53.9615 41.6609 53.97 41.6609 53.9827V54.0017H41.6629C41.7087 54.2701 41.7266 54.5661 41.7266 54.8514C41.7266 55.1579 41.7007 55.4665 41.647 55.7688C41.5973 56.0753 41.5038 56.3712 41.3844 56.6565C41.265 56.944 41.0919 57.204 40.9009 57.4471C41.1238 57.2357 41.3366 57.0011 41.4998 56.7263C41.6649 56.4494 41.8042 56.1535 41.9036 55.8449C42.0051 55.532 42.0767 55.2107 42.1245 54.8852C42.1662 54.5534 42.1941 54.2321 42.1802 53.877C42.1802 53.877 42.3075 53.8537 42.4109 53.8453C45.1743 53.6614 45.9899 56.832 45.606 58.561C45.1584 60.5606 43.5608 62.6616 41.7325 62.6658C39.9858 62.6679 38.8737 61.6745 38.4659 61.2158H38.4639C37.867 60.6557 37.6184 59.6939 37.8352 58.542C37.0693 59.2501 36.1641 59.6834 35.2271 59.6834C33.6733 59.6834 32.4319 58.8675 31.8987 58.5251C31.8828 58.5166 31.8669 58.506 31.851 58.4976C31.8032 58.4659 31.7614 58.4405 31.7296 58.4215C31.4929 58.2883 31.3795 58.1742 31.3496 58.0579C30.7508 57.3308 30.5757 56.1535 30.9756 54.7838C31.0393 54.5576 31.1248 54.3378 31.2143 54.1222C31.1487 54.1497 31.085 54.175 31.0174 54.2046C30.8722 54.2659 30.723 54.323 30.5737 54.3801C30.5578 54.3864 30.5439 54.3906 30.528 54.397C30.522 54.4033 30.518 54.4033 30.5101 54.4054C30.3847 54.454 30.2574 54.5005 30.1281 54.547C30.1202 54.5491 30.1122 54.5534 30.1042 54.5555C29.9988 54.5956 29.8894 54.6337 29.78 54.6675C29.766 54.6739 29.7561 54.6781 29.7422 54.6823C29.5989 54.7309 29.4557 54.7774 29.3104 54.8239C29.1175 54.8852 28.9205 54.9444 28.7216 55.0015C28.6957 55.0099 28.6679 55.0184 28.642 55.0247C28.453 55.0776 28.26 55.1283 28.069 55.1769C27.884 55.2255 27.695 55.2678 27.506 55.3101C27.4523 55.3249 27.4026 55.3354 27.3489 55.3439C27.1658 55.3841 26.9828 55.42 26.7998 55.4538C26.6386 55.4855 26.4755 55.513 26.3143 55.5384C26.2487 55.5532 26.1791 55.5637 26.1094 55.5722L26.0617 55.5806C25.8886 55.606 25.7135 55.6293 25.5424 55.6504C25.5206 55.6525 25.5007 55.6567 25.4788 55.6588H25.4768C25.2958 55.6821 25.1167 55.7011 24.9357 55.718C24.9118 55.7201 24.8899 55.7201 24.866 55.7244C24.8521 55.7265 24.8402 55.7307 24.8243 55.7307C24.6253 55.7476 24.4284 55.7645 24.2294 55.7751C24.2035 55.7772 24.1757 55.7814 24.1498 55.7814C23.9409 55.7962 23.7301 55.8047 23.5212 55.8089C23.2983 55.8174 23.0755 55.8195 22.8507 55.8195C18.7962 55.8195 14.9944 54.6865 11.7078 52.7039C13.2954 50.5458 15.4699 49.0345 18.0661 44.6316C18.3347 43.412 21.8023 38.6138 22.0032 37.0814C21.8262 35.9548 22.2817 34.714 22.5384 34.5365C22.5384 34.5365 21.7565 33.1731 21.854 32.1205C21.7585 32.6933 21.5297 34.0524 21.4342 34.3082C21.4342 34.3082 20.8513 38.8379 17.0774 40.5965C17.0774 40.5965 15.8141 41.2391 14.5727 40.7614C12.9612 41.3067 10.9936 40.3767 9.8696 39.0323C9.05393 38.0558 8.52872 36.9292 8.0234 35.7518C7.76079 35.141 7.43055 34.5026 7.18584 33.8474C6.65267 32.9491 6.11155 31.9302 5.57439 30.7698C4.46827 30.5901 3.50338 29.9476 2.86278 29.0366C1.9357 28.7047 1.15186 28.0389 0.64455 27.1765C0.236713 26.4895 -2.67029e-05 25.6757 -2.67029e-05 24.8049C-2.67029e-05 22.8497 1.17971 21.1904 2.82896 20.5859L2.83294 20.5817ZM35.2549 47.3012C35.6389 48.1974 35.8935 49.1592 36.0368 50.1505C36.0567 50.1505 36.0785 50.1484 36.0984 50.1484C36.0785 50.1484 36.0567 50.1484 36.0368 50.1505C36.0368 50.1505 36.0368 50.1526 36.0368 50.1547C36.558 50.1505 36.9101 50.2625 37.1787 50.3915C37.2901 50.4443 37.3876 50.5014 37.4791 50.5521C37.5746 50.588 37.6681 50.6282 37.7576 50.6705C37.8511 50.8248 37.9387 50.9981 38.0123 51.1672C38.1157 51.4039 38.2033 51.6491 38.2669 51.9007C38.3246 52.1543 38.3604 52.4143 38.3604 52.6785C38.3545 52.9427 38.3047 53.2048 38.2152 53.4585C38.3445 53.2281 38.444 52.9681 38.4937 52.6954C38.5395 52.4185 38.5494 52.1374 38.5275 51.8563C38.5057 51.5751 38.4559 51.2982 38.3863 51.0256C38.3366 50.8332 38.2809 50.6536 38.2092 50.4676C38.3545 50.1061 38.4917 49.7341 38.621 49.36C38.5813 48.7512 38.5315 48.1382 38.3724 47.557C37.9128 45.8681 37.7477 44.1053 37.5746 42.3572C37.3478 40.085 37.9327 38.1805 39.2099 36.7242C39.0388 36.3733 38.824 35.8723 38.631 35.2615C38.1495 36.164 37.5845 37.001 37.0852 37.6944C36.4585 38.5673 35.7105 39.4382 34.859 40.1463C34.8331 40.9643 35.0241 41.7696 35.0341 42.5855C35.044 43.2133 34.8451 44.9951 34.6879 46.1978C34.9087 46.5677 35.1017 46.9398 35.2589 47.3033L35.2549 47.3012Z" fill="#E2181A" fill-opacity="0.5"/>
</svg>
